# xmcd
#
# Track frame offsets:
#	150
#	12087
#	22137
#	36312
#	51162
#	64437
#	75237
#	92037
#	105162
#	117000
#	128187
#	139437
#	150762
#	160137
#	174237
#	185637
#	195162
#	220662
#
# Disc length: 3112 seconds
#
# Revision: 1
# Processed by: cddbd v1.4PL0 Copyright (c) Steve Scherf et al.
# Submitted via: audiograbber 1.81.02
#
DISCID=e00c2612
DTITLE=Various Artist - Good Time Country Disc 1
DYEAR=1997
DGENRE=Country
TTITLE0=Johnny Paycheck - Take This Job and Shove It
TTITLE1=Buck Owens - I've Got a Tiger by the Tail
TTITLE2=Larry Verne - Mr. Custer
TTITLE3=Jeannie C. Riley - Harper Valley P.T.A.
TTITLE4=Tom T. Hall - I Like Beer
TTITLE5=Dave Dudley - Six Days on the Road
TTITLE6=Johnny Cash - A Boy Named Sue
TTITLE7=Moe Bandy and Joe Stampley - Where's the Dress?
TTITLE8=Johnny Preston - Running Bear
TTITLE9=Don Bowman - Chit Akins, Make Me a Star
TTITLE10='Little' Jimmie Dickens - May the Bird of Paradise (Fly Up Your Nose)
TTITLE11=Stonewall Jackson - Waterloo
TTITLE12=Lester Flatt and Earl Scruggs with The Foggy Mountain Boys - The Ballad 
TTITLE12=of Jed Clampett
TTITLE13=Billy Edo Wheeler - Ode to the Little Brown Shack
TTITLE14=Johnny Horton - The Battle of New Orleans
TTITLE15=Webb Pierce - In the Jailhouse Now
TTITLE16=Andy Griffith - What It Was, Was Football
TTITLE17=Homer and Jethro - (How Much Is) That Hound Dog in the Window
EXTD=
EXTT0=
EXTT1=
EXTT2=
EXTT3=
EXTT4=
EXTT5=
EXTT6=
EXTT7=
EXTT8=
EXTT9=
EXTT10=
EXTT11=
EXTT12=
EXTT13=
EXTT14=
EXTT15=
EXTT16=
EXTT17=
PLAYORDER=
